999
LibreCAD macOS template — Blank metric A3 (mm, decimal). GPLv2-or-later.
  0
SECTION
  2
HEADER
  9
$ACADVER
  1
AC1015
  9
$INSUNITS
 70
     4
  9
$LUNITS
 70
     2
  9
$LUPREC
 70
     4
  9
$LIMMIN
 10
0.0
 20
0.0
  9
$LIMMAX
 10
420.0
 20
297.0
  9
$DIMTXT
 40
2.5
  9
$DIMASZ
 40
2.5
  9
$DIMSCALE
 40
1.0
  9
$DIMLUNIT
 70
     2
  9
$DIMDEC
 70
     4
  0
ENDSEC
  0
SECTION
  2
TABLES
  0
TABLE
  2
LAYER
 70
     1
  0
LAYER
  2
0
 70
     0
 62
     7
  6
CONTINUOUS
  0
ENDTAB
  0
ENDSEC
  0
SECTION
  2
ENTITIES
  0
ENDSEC
  0
EOF
